<svg xmlns="http://www.w3.org/2000/svg" viewBox="0 0 720 720"><path d="M360.00997515 44.97215985A314.99864134 314.99864134 0 01517.507718 87.19455615L360.00681952 359.99289063z" fill="red"/><path d="M517.52687245 87.18052885a315.00037276 315.00037276 0 01115.2861094 115.31554545L360.0120272 359.99589737z" fill="#ff8000"/><path d="M632.80633745 202.48917615a315.00037276 315.00037276 0 0142.18394425 157.508974l-315.00246845.00040551z" fill="#ff0"/><path d="M675.01484015 360.00147515a314.99864134 314.99864134 0 01-42.2223963 157.49774285L359.99410937 359.99831951z" fill="#80ff00"/><path d="M632.79947115 517.50437245a315.00037276 315.00037276 0 01-115.31554545 115.2861094L359.98410263 359.9895272z" fill="#0f0"/><path d="M517.52582385 632.80133745a315.00037276 315.00037276 0 01-157.508974 42.18394425l-.00040551-315.00246845z" fill="#00ff80"/><path d="M360.01352485 675.00634015a314.99864134 314.99864134 0 01-157.49774285-42.2223963l157.50089849-272.79833448z" fill="#0ff"/><path d="M202.47562755 632.79447115A315.00037276 315.00037276 0 0187.18951815 517.4789257L359.9904728 359.97910263z" fill="#0080ff"/><path d="M87.17866255 517.48582385a315.00037276 315.00037276 0 01-42.18394425-157.508974l315.00246845-.00040551z" fill="#00f"/><path d="M45.01215985 359.97352485A314.99864134 314.99864134 0 0187.23455615 202.475782l272.79833448 157.50089849z" fill="#8000ff"/><path d="M87.18552885 202.47062755A315.00037276 315.00037276 0 01202.5010743 87.18451815L360.00089738 359.9854728z" fill="#f0f"/><path d="M202.49417615 87.17366255a315.00037276 315.00037276 0 01157.508974-42.18394425l.00040551 315.00246844z" fill="#ff0080"/></svg>