<svg xmlns="http://www.w3.org/2000/svg" xmlns:xlink="http://www.w3.org/1999/xlink" viewBox="0 0 48 48"><defs><linearGradient id="a"><stop offset="0"/><stop offset="1" stop-opacity="0"/></linearGradient><linearGradient id="b" y2="609.51" gradientUnits="userSpaceOnUse" x2="302.86" gradientTransform="matrix(2.7744 0 0 1.9697 -1892.2 -872.89)" y1="366.65" x1="302.86"><stop offset="0" stop-opacity="0"/><stop offset=".5"/><stop offset="1" stop-opacity="0"/></linearGradient><linearGradient id="f" y2="6.8334" gradientUnits="userSpaceOnUse" x2="14.284" gradientTransform="matrix(1.1379 0 0 1 -2.6609 0)" y1="42.833" x1="21.043"><stop offset="0" stop-color="#dfdfdf"/><stop offset="1" stop-color="#fff"/></linearGradient><linearGradient id="e" y2="42.833" gradientUnits="userSpaceOnUse" x2="26.228" y1="28.083" x1="26.612"><stop offset="0" stop-color="#939393"/><stop offset="1" stop-color="#424242"/></linearGradient><linearGradient id="h" y2="7.5625" gradientUnits="userSpaceOnUse" x2="40.984" y1="7.5625" x1="6"><stop offset="0" stop-color="#a3a4a0"/><stop offset="1" stop-color="#888a85"/></linearGradient><linearGradient id="i" y2="22.251" gradientUnits="userSpaceOnUse" x2="50.988" gradientTransform="translate(-5.6693)" y1="17.376" x1="48.906"><stop offset="0" stop-color="#ffd1d1"/><stop offset=".5" stop-color="#ff1d1d"/><stop offset="1" stop-color="#6f0000"/></linearGradient><linearGradient id="j" y2="22.625" gradientUnits="userSpaceOnUse" x2="47.688" gradientTransform="translate(-5.6693)" y1="19.812" x1="46"><stop offset="0" stop-color="#c1c1c1"/><stop offset="1" stop-color="#acacac"/></linearGradient><linearGradient id="l" y2="30.703" gradientUnits="userSpaceOnUse" x2="25.515" gradientTransform="translate(-5.8255 .125)" y1="31.047" x1="25.719"><stop offset="0"/><stop offset="1" stop-color="#c9c9c9"/></linearGradient><radialGradient id="d" xlink:href="#a" gradientUnits="userSpaceOnUse" cy="486.65" cx="605.71" gradientTransform="matrix(-2.7744 0 0 1.9697 112.76 -872.89)" r="117.14"/><radialGradient id="c" xlink:href="#a" gradientUnits="userSpaceOnUse" cy="486.65" cx="605.71" gradientTransform="matrix(2.7744 0 0 1.9697 -1891.6 -872.89)" r="117.14"/><radialGradient id="k" gradientUnits="userSpaceOnUse" cy="27.641" cx="29.053" gradientTransform="matrix(2.9236 0 0 2.0297 -61.555 -27.884)" r="3.2409"><stop offset="0" stop-color="#e7e2b8"/><stop offset="1" stop-color="#e7e2b8" stop-opacity="0"/></radialGradient><radialGradient id="g" gradientUnits="userSpaceOnUse" cy="40.438" cx="23.562" gradientTransform="matrix(1 0 0 .34824 0 26.355)" r="19.562"><stop offset="0"/><stop offset="1" stop-opacity="0"/></radialGradient></defs><g color="#000"><path opacity=".40206" fill="url(#b)" d="M-1559.3-150.7h1339.6v478.36h-1339.6z" transform="matrix(.02418 0 0 .02087 45.128 40.154)"/><path d="M-219.62-150.68v478.33c142.88.9 345.4-107.17 345.4-239.2 0-132.02-159.44-239.13-345.4-239.13z" opacity=".40206" fill="url(#c)" transform="matrix(.02418 0 0 .02087 45.128 40.154)"/><path d="M-1559.3-150.68v478.33c-142.8.9-345.4-107.17-345.4-239.2 0-132.02 159.5-239.13 345.4-239.13z" opacity=".40206" fill="url(#d)" transform="matrix(.02418 0 0 .02087 45.128 40.154)"/><path d="M7.1639 4.5064h32.649c.763 0 1.377.5324 1.377 1.1938l2.401 34.169.012 2.348c0 .661-.614 1.193-1.376 1.193H4.7499c-.7625 0-1.3764-.532-1.3764-1.193l-.0112-2.167 2.425-34.35c0-.6612.6139-1.1936 1.3765-1.1936z" fill-rule="evenodd" stroke="url(#e)" fill="url(#f)"/><path d="M43.125 40.438a19.562 6.8125 0 11-39.125 0 19.562 6.8125 0 1139.125 0z" transform="matrix(.61661 0 0 .44037 10.614 13.943)" opacity=".31579" fill-rule="evenodd" fill="url(#g)"/><rect rx=".67938" ry=".67938" height="3.0715" width="39.048" y="39.868" x="3.977" fill-rule="evenodd" fill="#a4a4a4"/><path d="M3.9268 40.443s.1508-.531.704-.575h37.564c.755 0 .805.752.805.752s.024-1.62-1.284-1.62H5.3038c-1.0055.088-1.3772.78-1.3772 1.443z" fill-rule="evenodd" fill="#fff"/><path d="M6.25 5.7344L6 10.125S6.3125 9 7 9h33.125c.703-.0156.734.3125.859.8281l-.25-3.875C40.703 5.4062 40.516 5 39.953 5H7.063c-.4536 0-.7661.3437-.813.7344z" fill-rule="evenodd" fill="url(#h)"/><path d="M7.8126 5.5405h31.132c.722 0 1.303-.1522 1.303.4741l2.274 33.008.1 2.709c0 .626-.139.644-.861.644H4.8616c-.4126 0-.4194-.106-.4194-.511l-.0106-2.671 2.2961-33.148c0-.6264.3625-.5055 1.0845-.5055z" opacity=".4386" stroke="#fff" fill="none"/><g fill-rule="evenodd" stroke="#886f00" fill="#fce94f"><rect rx="1" ry="1" height="5" width="2" y="2.5" x="8.5"/><rect rx="1" ry="1" height="5" width="2" y="2.5" x="12.5"/><rect rx="1" ry="1" height="5" width="2" y="2.5" x="16.5"/><rect rx="1" ry="1" height="5" width="2" y="2.5" x="20.5"/><rect rx="1" ry="1" height="5" width="2" y="2.5" x="24.5"/><rect rx="1" ry="1" height="5" width="2" y="2.5" x="28.5"/><rect rx="1" ry="1" height="5" width="2" y="2.5" x="32.5"/><rect rx="1" ry="1" height="5" width="2" y="2.5" x="36.5"/></g><g fill-rule="evenodd"><path opacity=".2807" d="M9 12h29v1H9zM9 14.982h29v1H9zM9 18.004h13v1H9zM9 22.986h29v1H9zM9 26.008h29v1H9zM9 29.03h29v1H9zM9 32.052h8v1H9z"/></g><path d="M17.341 32.5l5.625-5.625 20.094-9.75c3.25-1.25 5.187 3.375 2.312 5L25.341 31.5l-8 1z" fill-rule="evenodd" stroke="#5c410c" fill="#cb9022"/><path d="M38.331 20s1.437.094 2 1.344c.579 1.288 0 2.656 0 2.656l5.031-2.469s1.452-.881.656-2.843c-.785-1.936-2.687-1.157-2.687-1.157l-5 2.469z" fill-rule="evenodd" fill="url(#i)"/><path d="M38.331 20s1.437.094 2 1.344c.579 1.288 0 2.656 0 2.656l2-1s.827-1.319.218-2.688C41.924 18.906 40.331 19 40.331 19l-2 1z" fill-rule="evenodd" fill="url(#j)"/><path d="M18.768 31.781l4.5-4.5c1.5.813 2.281 2.157 1.875 3.719l-6.375.781z" fill-rule="evenodd" fill="url(#k)"/><path d="M20.112 30.375l-1.625 1.594 2.344-.313c.218-.718-.188-1.062-.719-1.281z" fill-rule="evenodd" fill="url(#l)"/><path d="M23.268 27.25l1.563 1.25 15.387-7.319c-.444-.856-1.242-1.084-1.903-1.162L23.268 27.25z" fill-rule="evenodd" fill-opacity=".36364" fill="#fff"/><path d="M25.143 31.062l.188-.75 15.231-7.129s-.11.614-.216.749l-15.203 7.13z" fill-rule="evenodd" fill-opacity=".36364"/></g></svg>