<svg height="64" width="64" xml:space="preserve" xmlns="http://www.w3.org/2000/svg"><g fill="#37474F"><path d="m41.309 23.001-9.325 16.955-6.26-10.955h1.697l3.712 6.496.894 1.564.854-1.586L39.598 23h1.711M43 22.001h-4l-7 13-4-7h-4l8 14 11-20z"/><path d="M41 27.712V43H23V26h12.711l.538-1H22v19h20V25.894z"/><path d="M27 12.001h-4c-.869 0-1.741.419-2.211 1H14v33l11 11h25v-44h-6.789c-.47-.581-1.342-1-2.211-1h-4v-2h-1.133c-.855-.993-1.32-1.002-1.369-1.98l.002-.02c0-1.379-1.121-2.5-2.5-2.5a2.5 2.5 0 0 0-2.458 2.084 2.583 2.583 0 0 0-.042.416l.002.02c-.049.979-.514.987-1.369 1.98H27v2zm-3 42.586-7.586-7.586H24v7.586zm19.6-40.586H49v42H25v-10H15v-32h5.362c-.209.863-.362 2-.362 2h24l-.4-2zM30.502 8.02v-.035c0-.058.01-.113.017-.17.007-.047.009-.094.02-.14h-.001A1.503 1.503 0 0 1 32.001 6.5c.813 0 1.472.649 1.496 1.456l-.002.008.003.064A1.502 1.502 0 0 1 32 9.501a1.5 1.5 0 0 1-1.498-1.481zM28 13.001v-2h.591l.3-.348c.232-.27.435-.459.612-.625a4.35 4.35 0 0 0 .507-.531A2.492 2.492 0 0 0 32 10.501c.814 0 1.533-.397 1.989-1.002.155.2.333.365.508.529a7.4 7.4 0 0 1 .612.625l.3.348H36v2h5c.737 0 1.388.452 1.535.775l.245 1.225H21.173c.08-.438.178-.889.275-1.184.108-.324.783-.816 1.552-.816h5z"/><path d="M51 10.001H38v1h13c.552 0 1 .449 1 1v45c0 .551-.448 1-1 1H13c-.552 0-1-.449-1-1v-45c0-.551.448-1 1-1h13v-1H13c-1.1 0-2 .9-2 2v45c0 1.1.9 2 2 2h38c1.1 0 2-.9 2-2v-45c0-1.1-.9-2-2-2z"/></g></svg>